<svg xmlns="http://www.w3.org/2000/svg" xmlns:xlink="http://www.w3.org/1999/xlink" version="1.1" width="512" height="512" x="0" y="0" viewBox="0 0 64 64" style="enable-background:new 0 0 512 512" xml:space="preserve" class=""><g><path d="M31.975 15.002a17.003 17.003 0 1 0 17 17.004 17.021 17.021 0 0 0-17-17.004zm0 32.007a15.003 15.003 0 1 1 15-15.003 15.019 15.019 0 0 1-15 15.003zM59.002 29.005h-3.997a3 3 0 0 0 0 6.001h3.997a3 3 0 0 0 0-6zm0 4.001h-3.997a1 1 0 0 1 0-2h3.997a1 1 0 0 1 0 2zM31.975 51.999a3.003 3.003 0 0 0-2.999 3v4a2.998 2.998 0 1 0 5.997 0v-4a3.003 3.003 0 0 0-2.998-3zm.998 7a.998.998 0 1 1-1.997 0v-4a.998.998 0 1 1 1.997 0zM11.993 32.006a3.003 3.003 0 0 0-2.998-3H4.999a3 3 0 0 0 0 6h3.996a3.003 3.003 0 0 0 2.998-3zm-2.998 1H4.999a1 1 0 0 1 0-2h3.996a1 1 0 0 1 0 2zM31.975 12.001a3.003 3.003 0 0 0 2.998-3v-4a2.998 2.998 0 1 0-5.996 0v4a3.003 3.003 0 0 0 2.998 3zm-.998-7a.998.998 0 1 1 1.996 0v4a.998.998 0 1 1-1.996 0zM50.362 17.86l2.829-2.83a2.998 2.998 0 1 0-4.24-4.24l-2.83 2.829a2.998 2.998 0 1 0 4.24 4.24zm-2.826-2.827 2.829-2.829a.998.998 0 1 1 1.411 1.412l-2.828 2.829a.998.998 0 1 1-1.412-1.412zM50.361 46.153a2.998 2.998 0 1 0-4.24 4.24l2.829 2.829a2.998 2.998 0 1 0 4.24-4.24zm1.417 5.656a1 1 0 0 1-1.414-.001l-2.829-2.83a.998.998 0 1 1 1.412-1.41l2.829 2.828a1 1 0 0 1 .002 1.413zM13.587 46.152l-2.828 2.83a2.998 2.998 0 1 0 4.24 4.24l2.829-2.83a2.998 2.998 0 1 0-4.24-4.24zm2.826 2.826-2.828 2.83a.998.998 0 1 1-1.412-1.413l2.829-2.828a.998.998 0 1 1 1.411 1.411zM13.588 17.859a2.998 2.998 0 1 0 4.24-4.24l-2.829-2.83a2.998 2.998 0 1 0-4.24 4.241zm-1.417-5.656a1 1 0 0 1 1.414.001l2.829 2.829a.998.998 0 1 1-1.412 1.412l-2.829-2.83a1 1 0 0 1-.002-1.412z" opacity="1" data-original="#000000"/></g></svg>