<svg xmlns="http://www.w3.org/2000/svg" xmlns:xlink="http://www.w3.org/1999/xlink" version="1.1" width="512" height="512" x="0" y="0" viewBox="0 0 32 32" style="enable-background:new 0 0 512 512" xml:space="preserve" class=""><g><path d="M16.017 6.542h-.03c-2.421 0-4.7.944-6.418 2.659a9.05 9.05 0 0 0-2.675 6.447c0 2.342.89 4.563 2.506 6.254.81.848 1.256 1.896 1.256 2.951v.768c0 1.048.853 1.9 1.9 1.9h6.889c1.048 0 1.9-.852 1.9-1.9v-.768c0-1.056.446-2.104 1.256-2.952a9.011 9.011 0 0 0 2.506-6.253 9.05 9.05 0 0 0-2.675-6.447 9.023 9.023 0 0 0-6.415-2.659zM21.3 20.657c-1.132 1.185-1.756 2.674-1.756 4.195v.768a.1.1 0 0 1-.1.1h-6.889a.1.1 0 0 1-.1-.1v-.768c0-1.521-.624-3.011-1.756-4.195a7.22 7.22 0 0 1-2.006-5.01c0-1.954.762-3.791 2.146-5.173a7.242 7.242 0 0 1 5.149-2.133h.024c1.941 0 3.769.757 5.146 2.133a7.262 7.262 0 0 1 2.146 5.173 7.207 7.207 0 0 1-2.004 5.01z"   data-original="#000000" class=""/><path d="M14.76 10.691a5.085 5.085 0 0 0-3.719 3.738.9.9 0 1 0 1.748.427 3.33 3.33 0 0 1 2.406-2.418.9.9 0 0 0-.435-1.747zM18.455 29.1h-4.91a.9.9 0 0 0 0 1.8h4.91a.9.9 0 0 0 0-1.8zM16 4.662a.9.9 0 0 0 .9-.9V2a.9.9 0 0 0-1.8 0v1.762a.9.9 0 0 0 .9.9zM28.815 12.909h-1.762a.9.9 0 0 0 0 1.8h1.762a.9.9 0 0 0 0-1.8zM4.946 12.909H3.185a.9.9 0 0 0 0 1.8h1.762a.9.9 0 1 0-.001-1.8zM8.259 7.341a.897.897 0 0 0 1.274 0 .898.898 0 0 0 0-1.272L8.286 4.822a.9.9 0 1 0-1.273 1.272zM23.714 4.822l-1.246 1.246a.898.898 0 0 0 .637 1.536.897.897 0 0 0 .637-.264l1.246-1.246c.352-.351.352-.921 0-1.272s-.923-.351-1.274 0z" data-original="#000000" class=""/></g></svg>