<svg xmlns="http://www.w3.org/2000/svg" xmlns:xlink="http://www.w3.org/1999/xlink" version="1.1" width="512" height="512" x="0" y="0" viewBox="0 0 512 512" style="enable-background:new 0 0 512 512" xml:space="preserve"><g><switch><g><path d="M482.58 274.258v-88.323c.781-1.313-1.152-11.49-4.701-12.672L246.954 96.288a8.701 8.701 0 0 0-5.497 0L10.531 173.263a8.69 8.69 0 0 0 0 16.489l87.248 29.083v102.966a8.69 8.69 0 0 0 8.352 8.684c.918.036 92.23 4.101 131.523 49.171a8.687 8.687 0 0 0 13.102 0c38.701-44.392 128.208-49.019 131.444-49.167a8.692 8.692 0 0 0 8.457-8.688V218.826l77.025-25.675v81.107c-14.219 3.373-24.831 16.168-24.831 31.403 0 15.234 10.612 28.03 24.831 31.403v29.779l-23.698 37.918a7.45 7.45 0 0 0 6.317 11.398h42.212a7.448 7.448 0 0 0 6.825-10.434L482.58 367.42v-30.356c14.219-3.373 24.831-16.168 24.831-31.403s-10.612-28.03-24.831-31.403zm-109.305 39.42c-23.504 2.02-90.411 10.888-129.07 47.719-38.643-36.817-105.516-45.692-129.045-47.717v-88.719h.998l125.298 41.766a8.7 8.7 0 0 0 5.498 0l125.298-41.766h1.023zm-129.069-64.357L40.762 181.508l203.443-67.814 203.443 67.814zM463.74 401.259l10.226-16.361 7.157 16.361zm11.391-78.216c-9.584 0-17.381-7.799-17.381-17.381 0-9.583 7.797-17.381 17.381-17.381s17.381 7.798 17.381 17.381c0 9.582-7.797 17.381-17.381 17.381z" /></g></switch></g></svg>